<svg width="301" height="89" viewBox="0 0 301 89" fill="none" xmlns="http://www.w3.org/2000/svg">
<path d="M289.188 1.56104H11.3091C5.68103 1.56104 1.11856 6.12351 1.11856 11.7516V77.5898C1.11856 83.2179 5.68103 87.7804 11.3091 87.7804H289.188C294.817 87.7804 299.379 83.2179 299.379 77.5898V11.7516C299.379 6.12351 294.817 1.56104 289.188 1.56104Z" fill="black"/>
<path d="M289.188 88.8849H11.309C5.06767 88.8849 0 83.8172 0 77.5759V11.7514C0 5.51005 5.06767 0.442383 11.309 0.442383H289.188C295.43 0.442383 300.497 5.51005 300.497 11.7514V77.5759C300.497 83.8172 295.43 88.8849 289.188 88.8849ZM11.309 2.67934C6.31042 2.67934 2.23695 6.7528 2.23695 11.7514V77.5759C2.23695 82.5745 6.31042 86.6479 11.309 86.6479H289.188C294.187 86.6479 298.26 82.5745 298.26 77.5759V11.7514C298.26 6.73899 294.187 2.67934 289.188 2.67934H11.309Z" fill="#A7A9AC"/>
<path d="M100.042 25.5873L98.785 29.7022H96.051L100.704 15.1758H104.087L108.81 29.7022H105.965L104.654 25.5873H100.042ZM104.198 23.5851L103.052 20.0087C102.776 19.125 102.541 18.1308 102.32 17.2885H102.279C102.058 18.1308 101.85 19.1388 101.588 20.0087L100.47 23.5851H104.198Z" fill="white"/>
<path d="M112.773 19.2085L114.471 24.5385C114.775 25.4637 114.982 26.306 115.189 27.1621H115.258C115.452 26.306 115.687 25.4775 115.976 24.5385L117.661 19.2085H120.437L116.432 29.7028H113.822L109.915 19.2085H112.787H112.773Z" fill="white"/>
<path d="M131 27.1895C131 28.1422 131.041 29.0674 131.166 29.7164H128.777L128.583 28.5565H128.514C127.893 29.3712 126.788 29.9511 125.408 29.9511C123.295 29.9511 122.107 28.4184 122.107 26.8305C122.107 24.2069 124.455 22.8398 128.335 22.8675V22.7018C128.335 22.0113 128.059 20.8652 126.195 20.8652C125.159 20.8652 124.082 21.1828 123.378 21.6385L122.867 19.9125C123.64 19.443 125.007 18.9873 126.664 18.9873C130.033 18.9873 131 21.1276 131 23.4336V27.2033V27.1895ZM128.418 24.5797C126.54 24.5521 124.759 24.9525 124.759 26.5405C124.759 27.5761 125.421 28.0456 126.264 28.0456C127.341 28.0456 128.1 27.3552 128.349 26.5957C128.418 26.4024 128.418 26.2091 128.418 26.0158V24.5659V24.5797Z" fill="white"/>
<path d="M136.068 17.7027C135.184 17.7027 134.604 17.0537 134.604 16.2804C134.604 15.4658 135.212 14.8306 136.095 14.8306C136.979 14.8306 137.559 15.4519 137.587 16.2804C137.587 17.0537 137.007 17.7027 136.095 17.7027H136.068ZM134.756 29.7022V19.2078H137.407V29.7022H134.756Z" fill="white"/>
<path d="M141.218 14.3892H143.869V29.7164H141.218V14.3892Z" fill="white"/>
<path d="M155.855 27.1895C155.855 28.1422 155.896 29.0674 156.021 29.7164H153.632L153.438 28.5565H153.369C152.748 29.3712 151.643 29.9511 150.263 29.9511C148.15 29.9511 146.962 28.4184 146.962 26.8305C146.962 24.2069 149.31 22.8398 153.19 22.8675V22.7018C153.19 22.0113 152.914 20.8652 151.063 20.8652C150.028 20.8652 148.951 21.1828 148.247 21.6385L147.736 19.9125C148.509 19.443 149.876 18.9873 151.533 18.9873C154.888 18.9873 155.869 21.1276 155.869 23.4336V27.2033L155.855 27.1895ZM153.273 24.5797C151.395 24.5521 149.614 24.9525 149.614 26.5405C149.614 27.5761 150.276 28.0456 151.119 28.0456C152.196 28.0456 152.955 27.3552 153.204 26.5957C153.273 26.4024 153.273 26.2091 153.273 26.0158V24.5659V24.5797Z" fill="white"/>
<path d="M159.597 14.3892H162.248V20.6582H162.29C162.939 19.6501 164.085 18.9735 165.659 18.9735C168.227 18.9735 170.05 21.1138 170.036 24.3036C170.036 28.0732 167.647 29.9512 165.272 29.9512C163.919 29.9512 162.704 29.4265 161.958 28.1423H161.917L161.793 29.7164H159.528C159.569 28.9984 159.611 27.8385 159.611 26.7891V14.3892H159.597ZM162.248 25.3806C162.248 25.6015 162.276 25.8087 162.317 26.002C162.593 27.079 163.519 27.8523 164.665 27.8523C166.322 27.8523 167.343 26.5405 167.343 24.4002C167.343 22.5499 166.46 21.0448 164.692 21.0448C163.615 21.0448 162.621 21.8181 162.345 22.978C162.303 23.1713 162.262 23.406 162.262 23.6684V25.3668L162.248 25.3806Z" fill="white"/>
<path d="M173.157 14.3892H175.808V29.7164H173.157V14.3892Z" fill="white"/>
<path d="M181.511 25.2007C181.58 27.0925 183.057 27.921 184.742 27.921C185.971 27.921 186.827 27.7276 187.656 27.4515L188.042 29.2604C187.131 29.647 185.888 29.9232 184.383 29.9232C180.972 29.9232 178.97 27.8381 178.97 24.6208C178.97 21.7072 180.738 18.9731 184.107 18.9731C187.476 18.9731 188.636 21.7762 188.636 24.0822C188.636 24.5793 188.595 24.966 188.553 25.2007H181.525H181.511ZM186.123 23.3504C186.151 22.3838 185.709 20.782 183.941 20.782C182.298 20.782 181.608 22.2733 181.511 23.3504H186.123Z" fill="white"/>
<path d="M201.712 29.9508C198.757 29.9508 196.451 27.921 196.451 24.5379C196.451 21.1549 198.716 18.9731 201.878 18.9731C205.04 18.9731 207.098 21.1687 207.098 24.3584C207.098 28.2109 204.377 29.937 201.726 29.937H201.699L201.712 29.9508ZM201.795 28.0314C203.3 28.0314 204.364 26.5677 204.364 24.4274C204.364 22.7843 203.632 20.8925 201.823 20.8925C200.014 20.8925 199.186 22.729 199.186 24.4689C199.186 26.4987 200.194 28.0314 201.768 28.0314H201.795Z" fill="white"/>
<path d="M210.218 22.3427C210.218 21.1414 210.177 20.1196 210.136 19.222H212.442L212.566 20.7962H212.635C213.104 19.9815 214.25 18.9873 216.004 18.9873C217.758 18.9873 219.732 20.1748 219.732 23.4888V29.7164H217.081V23.7926C217.081 22.2875 216.515 21.1414 215.079 21.1414C214.03 21.1414 213.298 21.9009 213.008 22.6879C212.925 22.9089 212.883 23.2265 212.883 23.5303V29.7164H210.232V22.3427H210.218Z" fill="white"/>
<path d="M231.939 16.5153V19.2079H234.466V21.1963H231.939V25.8083C231.939 27.1063 232.284 27.7415 233.292 27.7415C233.762 27.7415 234.024 27.7139 234.328 27.631L234.369 29.6332C233.983 29.7851 233.265 29.9094 232.45 29.9094C231.456 29.9094 230.669 29.5918 230.171 29.0533C229.591 28.4457 229.329 27.4791 229.329 26.0983V21.1825H227.838V19.1941H229.329V17.2333L231.939 16.5015V16.5153Z" fill="white"/>
<path d="M237.407 14.3892H240.058V20.6443H240.1C240.417 20.1472 240.873 19.733 241.412 19.4568C241.95 19.153 242.571 18.9873 243.248 18.9873C245.029 18.9873 246.907 20.1749 246.907 23.5303V29.7164H244.256V23.8065C244.256 22.3013 243.69 21.1276 242.226 21.1276C241.191 21.1276 240.459 21.8181 240.155 22.6189C240.072 22.8537 240.044 23.1437 240.044 23.4198V29.7164H237.393V14.3892H237.407Z" fill="white"/>
<path d="M252.555 25.2007C252.624 27.0925 254.101 27.921 255.786 27.921C257.015 27.921 257.871 27.7276 258.7 27.4515L259.086 29.2604C258.175 29.647 256.932 29.9232 255.427 29.9232C252.016 29.9232 250.014 27.8381 250.014 24.6208C250.014 21.7072 251.782 18.9731 255.151 18.9731C258.52 18.9731 259.68 21.7762 259.68 24.0822C259.68 24.5793 259.639 24.966 259.597 25.2007H252.569H252.555ZM257.167 23.3504C257.194 22.3838 256.753 20.782 254.985 20.782C253.342 20.782 252.652 22.2733 252.555 23.3504H257.167Z" fill="white"/>
<path d="M67.0671 43.8004C66.9981 36.6063 72.9495 33.1127 73.2256 32.947C69.8564 28.0313 64.623 27.3547 62.7865 27.2994C58.3954 26.8438 54.1425 29.923 51.9055 29.923C49.6686 29.923 46.1751 27.3409 42.4744 27.4099C37.6967 27.4927 33.2366 30.2544 30.7787 34.535C25.7249 43.2895 29.4946 56.1451 34.3413 63.2288C36.7716 66.6947 39.6023 70.561 43.3029 70.4229C46.9207 70.271 48.2739 68.1169 52.6512 68.1169C57.0284 68.1169 58.2574 70.4229 62.0409 70.3401C65.9348 70.271 68.3789 66.8604 70.7125 63.3668C73.5156 59.39 74.6341 55.4823 74.6893 55.289C74.5927 55.2613 67.1361 52.4168 67.0533 43.7866" fill="white"/>
<path d="M59.9144 22.66C61.8613 20.216 63.2007 16.902 62.8279 13.5327C60.011 13.657 56.4761 15.4797 54.4462 17.8685C52.6512 19.9674 51.0356 23.4195 51.4498 26.6507C54.6258 26.8854 57.8707 25.0489 59.9144 22.6462" fill="white"/>
<path d="M119.456 69.8707H114.402L111.641 61.1715H102.03L99.3926 69.8707H94.4768L104.005 40.2656H109.887L119.456 69.8707ZM110.812 57.5261L108.313 49.7934C108.05 49.0063 107.553 47.1422 106.821 44.2148H106.739C106.449 45.4714 105.979 47.3355 105.33 49.7934L102.872 57.5261H110.826H110.812Z" fill="white"/>
<path d="M143.966 58.935C143.966 62.5666 142.985 65.4388 141.025 67.5376C139.271 69.4156 137.089 70.3407 134.48 70.3407C131.663 70.3407 129.647 69.3327 128.418 67.3167H128.335V78.5567H123.585V55.5382C123.585 53.2598 123.53 50.9124 123.405 48.5097H127.575L127.838 51.8928H127.934C129.509 49.3382 131.911 48.0679 135.129 48.0679C137.642 48.0679 139.754 49.0621 141.425 51.0505C143.11 53.0389 143.952 55.6625 143.952 58.9074M139.119 59.0869C139.119 57.0157 138.65 55.2896 137.711 53.9502C136.689 52.5418 135.308 51.8376 133.582 51.8376C132.408 51.8376 131.345 52.2242 130.392 52.9975C129.439 53.7845 128.818 54.7925 128.528 56.0491C128.376 56.6429 128.307 57.1123 128.307 57.499V61.0615C128.307 62.6081 128.777 63.9199 129.729 64.9831C130.682 66.0602 131.925 66.5849 133.444 66.5849C135.225 66.5849 136.62 65.9083 137.614 64.5274C138.608 63.1466 139.105 61.3377 139.105 59.0731" fill="white"/>
<path d="M168.517 58.935C168.517 62.5666 167.537 65.4388 165.576 67.5376C163.822 69.4156 161.641 70.3407 159.031 70.3407C156.228 70.3407 154.198 69.3327 152.969 67.3167H152.886V78.5567H148.15V55.5382C148.15 53.2598 148.095 50.9124 147.97 48.5097H152.14L152.403 51.8928H152.499C154.074 49.3382 156.476 48.0679 159.694 48.0679C162.207 48.0679 164.306 49.0621 165.99 51.0505C167.675 53.0389 168.517 55.6625 168.517 58.9074M163.684 59.0869C163.684 57.0157 163.215 55.2896 162.276 53.9502C161.254 52.5418 159.873 51.8376 158.147 51.8376C156.973 51.8376 155.91 52.2242 154.957 52.9975C154.005 53.7845 153.383 54.7925 153.093 56.0491C152.941 56.6429 152.872 57.1123 152.872 57.499V61.0615C152.872 62.6081 153.342 63.9199 154.295 64.9831C155.247 66.0602 156.476 66.5849 158.009 66.5849C159.79 66.5849 161.185 65.9083 162.179 64.5274C163.173 63.1466 163.67 61.3377 163.67 59.0731" fill="white"/>
<path d="M195.968 61.5721C195.968 64.0852 195.098 66.1427 193.331 67.7168C191.398 69.4429 188.719 70.3128 185.267 70.3128C182.077 70.3128 179.523 69.7052 177.589 68.4763L178.694 64.5271C180.779 65.7837 183.057 66.4188 185.557 66.4188C187.338 66.4188 188.733 66.0184 189.727 65.2175C190.721 64.4028 191.218 63.3258 191.218 61.9864C191.218 60.785 190.804 59.777 189.989 58.9485C189.175 58.12 187.808 57.3606 185.902 56.6563C180.724 54.7232 178.128 51.8924 178.128 48.1642C178.128 45.7339 179.039 43.7317 180.848 42.1852C182.657 40.6248 185.074 39.8516 188.098 39.8516C190.79 39.8516 193.027 40.321 194.808 41.26L193.621 45.1264C191.95 44.215 190.058 43.7593 187.959 43.7593C186.289 43.7593 184.991 44.1736 184.052 44.9883C183.265 45.7201 182.864 46.6177 182.864 47.6671C182.864 48.8408 183.32 49.8074 184.217 50.5668C185.004 51.2711 186.441 52.0305 188.526 52.859C191.066 53.8808 192.944 55.0822 194.146 56.463C195.347 57.8438 195.941 59.5561 195.941 61.5997" fill="white"/>
<path d="M211.641 52.0858H206.421V62.4559C206.421 65.0933 207.346 66.4051 209.197 66.4051C210.039 66.4051 210.743 66.336 211.296 66.1841L211.42 69.7881C210.495 70.1333 209.252 70.3128 207.733 70.3128C205.855 70.3128 204.391 69.7467 203.342 68.6006C202.292 67.4545 201.754 65.5351 201.754 62.8425V52.0858H198.633V48.5232H201.754V44.6155L206.407 43.207V48.5232H211.627V52.0858H211.641Z" fill="white"/>
<path d="M235.225 59.0314C235.225 62.3178 234.286 65.0104 232.422 67.1093C230.462 69.2772 227.852 70.3543 224.607 70.3543C221.362 70.3543 218.973 69.3187 217.123 67.2336C215.259 65.1623 214.333 62.5388 214.333 59.3766C214.333 56.0626 215.286 53.3562 217.206 51.2573C219.125 49.1447 221.707 48.0952 224.952 48.0952C228.197 48.0952 230.6 49.1308 232.505 51.2159C234.328 53.2457 235.225 55.8417 235.225 59.0314ZM230.31 59.1833C230.31 57.2225 229.882 55.5241 229.039 54.1157C228.045 52.4172 226.623 51.5611 224.786 51.5611C222.95 51.5611 221.431 52.4172 220.437 54.1157C219.581 55.5241 219.166 57.2363 219.166 59.2662C219.166 61.296 219.581 62.9254 220.437 64.3338C221.458 66.0323 222.895 66.8884 224.745 66.8884C226.595 66.8884 227.976 66.0185 228.998 64.2924C229.882 62.8563 230.31 61.1579 230.31 59.1833Z" fill="white"/>
<path d="M250.635 52.7072C250.166 52.6244 249.669 52.5829 249.144 52.5829C247.473 52.5829 246.189 53.2181 245.278 54.4747C244.491 55.5932 244.09 56.9878 244.09 58.6862V69.8848H239.354L239.395 55.2618C239.395 52.8039 239.34 50.5669 239.216 48.5371H243.345L243.524 52.6244H243.648C244.145 51.2159 244.946 50.0836 246.023 49.2413C247.073 48.4819 248.219 48.0952 249.448 48.0952C249.89 48.0952 250.276 48.1228 250.635 48.1781V52.7072Z" fill="white"/>
<path d="M271.845 58.189C271.845 59.0452 271.79 59.7494 271.679 60.3431H257.457C257.512 62.4558 258.202 64.0576 259.514 65.1761C260.716 66.1703 262.262 66.6674 264.168 66.6674C266.266 66.6674 268.186 66.336 269.926 65.6594L270.671 68.9596C268.655 69.8433 266.266 70.2852 263.505 70.2852C260.205 70.2852 257.595 69.3048 255.717 67.3578C253.839 65.4108 252.886 62.801 252.886 59.5146C252.886 56.2283 253.77 53.6185 255.524 51.4782C257.36 49.1998 259.859 48.0537 262.98 48.0537C266.101 48.0537 268.393 49.1998 269.967 51.4782C271.224 53.3009 271.845 55.5378 271.845 58.2029M267.33 56.9739C267.357 55.5655 267.054 54.3503 266.405 53.3285C265.59 52.0167 264.32 51.3539 262.621 51.3539C261.075 51.3539 259.818 52.0029 258.851 53.2871C258.064 54.3089 257.595 55.5378 257.457 56.9739H267.33Z" fill="white"/>
</svg>
