<svg width="301" height="89" viewBox="0 0 301 89" fill="none" xmlns="http://www.w3.org/2000/svg">
<path d="M289.686 1.11865H11.8067C6.17859 1.11865 1.61612 5.68113 1.61612 11.3092V77.1475C1.61612 82.7756 6.17859 87.338 11.8067 87.338H289.686C295.314 87.338 299.877 82.7756 299.877 77.1475V11.3092C299.877 5.68113 295.314 1.11865 289.686 1.11865Z" fill="black"/>
<path d="M289.686 88.4425H11.8066C5.56522 88.4425 0.497559 83.3748 0.497559 77.1335V11.309C0.497559 5.06767 5.56522 0 11.8066 0H289.686C295.927 0 300.995 5.06767 300.995 11.309V77.1335C300.995 83.3748 295.927 88.4425 289.686 88.4425ZM11.8066 2.23696C6.80798 2.23696 2.73451 6.31041 2.73451 11.3228V77.1473C2.73451 82.1459 6.80798 86.2194 11.8066 86.2194H289.686C294.685 86.2194 298.758 82.1459 298.758 77.1473V11.3228C298.758 6.31041 294.685 2.23696 289.686 2.23696H11.8066Z" fill="#A7A9AC"/>
<path d="M152.086 48.371C146.866 48.371 142.599 52.3478 142.599 57.816C142.599 63.2841 146.852 67.2609 152.086 67.2609C157.319 67.2609 161.572 63.2564 161.572 57.816C161.572 52.3755 157.319 48.371 152.086 48.371ZM152.086 63.5464C149.227 63.5464 146.756 61.1852 146.756 57.816C146.756 54.4467 149.227 52.0855 152.086 52.0855C154.944 52.0855 157.416 54.4053 157.416 57.816C157.416 61.2266 154.944 63.5464 152.086 63.5464ZM131.401 48.371C126.181 48.371 121.914 52.3478 121.914 57.816C121.914 63.2841 126.167 67.2609 131.401 67.2609C136.634 67.2609 140.887 63.2564 140.887 57.816C140.887 52.3755 136.634 48.371 131.401 48.371ZM131.401 63.5464C128.542 63.5464 126.071 61.1852 126.071 57.816C126.071 54.4467 128.542 52.0855 131.401 52.0855C134.259 52.0855 136.731 54.4053 136.731 57.816C136.731 61.2266 134.259 63.5464 131.401 63.5464ZM106.794 51.2708V55.2752H116.377C116.087 57.526 115.342 59.1692 114.196 60.3153C112.801 61.7099 110.619 63.2426 106.794 63.2426C100.884 63.2426 96.2723 58.4788 96.2723 52.5826C96.2723 46.6864 100.884 41.9225 106.794 41.9225C109.984 41.9225 112.304 43.1791 114.016 44.7809L116.847 41.9501C114.444 39.658 111.268 37.9043 106.794 37.9043C98.7026 37.9043 91.9089 44.4909 91.9089 52.5688C91.9089 60.6467 98.7026 67.2333 106.794 67.2333C111.158 67.2333 114.458 65.7972 117.026 63.1184C119.677 60.4672 120.492 56.7527 120.492 53.7425C120.492 52.8173 120.423 51.9474 120.271 51.2432H106.78L106.794 51.2708ZM207.416 54.3777C206.629 52.265 204.226 48.371 199.324 48.371C194.422 48.371 190.418 52.196 190.418 57.816C190.418 63.1046 194.422 67.2609 199.794 67.2609C204.129 67.2609 206.629 64.6097 207.664 63.0769L204.447 60.9366C203.37 62.5108 201.906 63.5464 199.794 63.5464C197.681 63.5464 196.176 62.5798 195.209 60.6881L207.844 55.4685L207.416 54.3915V54.3777ZM194.533 57.526C194.422 53.8806 197.363 52.0164 199.476 52.0164C201.119 52.0164 202.514 52.8449 202.983 54.0187L194.546 57.526H194.533ZM184.259 66.6809H188.415V38.9123H184.259V66.6809ZM177.465 50.4699H177.327C176.402 49.3652 174.607 48.3572 172.356 48.3572C167.634 48.3572 163.298 52.5135 163.298 57.8436C163.298 63.1736 167.634 67.2471 172.356 67.2471C174.607 67.2471 176.402 66.239 177.327 65.1068H177.465V66.46C177.465 70.0778 175.532 72.0109 172.425 72.0109C169.885 72.0109 168.31 70.1882 167.661 68.6417L164.044 70.1468C165.079 72.6461 167.841 75.7254 172.412 75.7254C177.272 75.7254 181.387 72.8671 181.387 65.88V48.9234H177.452V50.4561L177.465 50.4699ZM172.702 63.5326C169.843 63.5326 167.441 61.13 167.441 57.8436C167.441 54.5572 169.843 52.0855 172.702 52.0855C175.56 52.0855 177.742 54.5158 177.742 57.8436C177.742 61.1714 175.518 63.5326 172.702 63.5326ZM226.844 38.9123H216.916V66.6809H221.058V56.1589H226.844C231.442 56.1589 235.958 52.8311 235.958 47.5425C235.958 42.2539 231.442 38.9261 226.844 38.9261V38.9123ZM226.955 52.2926H221.058V42.7786H226.955C230.048 42.7786 231.815 45.347 231.815 47.5425C231.815 49.7381 230.061 52.3064 226.955 52.3064V52.2926ZM252.569 48.302C249.573 48.302 246.466 49.6276 245.182 52.555L248.855 54.0877C249.642 52.555 251.105 52.0579 252.638 52.0579C254.778 52.0579 256.96 53.342 257.002 55.6342V55.9242C256.256 55.4961 254.64 54.8472 252.68 54.8472C248.717 54.8472 244.685 57.0289 244.685 61.1023C244.685 64.8168 247.929 67.2056 251.575 67.2056C254.364 67.2056 255.897 65.9491 256.863 64.4854H257.002V66.6257H261.006V55.9794C261.006 51.0499 257.333 48.302 252.583 48.302H252.569ZM252.072 63.5188C250.719 63.5188 248.827 62.8422 248.827 61.1576C248.827 59.0173 251.188 58.1888 253.218 58.1888C255.041 58.1888 255.897 58.5754 257.002 59.1139C256.684 61.6823 254.461 63.505 252.072 63.505V63.5188ZM275.574 48.9096L270.824 60.9504H270.686L265.756 48.9096H261.296L268.683 65.7281L264.472 75.0902H268.794L280.186 48.9096H275.574ZM238.25 66.6671H242.392V38.8985H238.25V66.6671Z" fill="white"/>
<path d="M23.9304 16.8184C23.2814 17.495 22.9085 18.5583 22.9085 19.9391V69.014C22.9085 70.3948 23.2952 71.4442 23.9304 72.1347L24.0961 72.3004L51.5885 44.8079V44.1589L24.0961 16.6665L23.9304 16.8322V16.8184Z" fill="#5BC9F4"/>
<path d="M60.7573 53.9767L51.5885 44.808V44.159L60.7573 34.9902L60.9644 35.1145L71.8178 41.2869C74.9246 43.0543 74.9246 45.9265 71.8178 47.6939L60.9644 53.8663L60.7573 53.9905V53.9767Z" fill="url(#paint0_linear_42_5)"/>
<path d="M60.9644 53.8524L51.5885 44.4766L23.9303 72.1347C24.9522 73.2117 26.6368 73.3498 28.5423 72.2728L60.9644 53.8524Z" fill="url(#paint1_linear_42_5)"/>
<path d="M60.9644 35.1008L28.5423 16.6805C26.6368 15.6034 24.9522 15.7277 23.9303 16.8186L51.5885 44.4767L60.9644 35.1008Z" fill="url(#paint2_linear_42_5)"/>
<path d="M102.583 18.3934C101.754 17.6478 100.65 17.1783 99.4344 17.1783C96.7004 17.1783 94.6015 19.429 94.6015 22.2045C94.6015 24.98 96.7004 27.2031 99.4344 27.2031C101.782 27.2031 103.494 25.8361 103.605 23.682H99.8901V22.1493H105.621C105.621 26.7337 103.176 28.9016 99.4344 28.9016C95.6924 28.9016 92.834 25.9052 92.834 22.2045C92.834 18.5039 95.72 15.4937 99.4344 15.4937C101.16 15.4937 102.721 16.1565 103.853 17.2197L102.583 18.3934Z" fill="white"/>
<path d="M115.756 15.645V17.2882H109.777V21.4583H114.996V23.1153H109.777V27.0645H115.935V28.7077H108.009V15.645H115.742H115.756Z" fill="white"/>
<path d="M127.189 15.645V17.3158H123.226V28.7077H121.445V17.3158H117.482V15.645H127.189Z" fill="white"/>
<path d="M135.654 15.645V28.7077H133.886V15.645H135.654Z" fill="white"/>
<path d="M147.681 15.645V17.3158H143.718V28.7077H141.936V17.3158H137.973V15.645H147.681Z" fill="white"/>
<path d="M160.122 15.4937C163.864 15.4937 166.764 18.4901 166.764 22.2045C166.764 25.919 163.864 28.9016 160.122 28.9016C156.38 28.9016 153.522 25.9052 153.522 22.2045C153.522 18.5039 156.408 15.4937 160.122 15.4937ZM160.122 27.1893C162.87 27.1893 164.983 24.9662 164.983 22.2045C164.983 19.4428 162.884 17.1921 160.122 17.1921C157.36 17.1921 155.289 19.429 155.289 22.2045C155.289 24.98 157.388 27.1893 160.122 27.1893Z" fill="white"/>
<path d="M177.189 28.7077L171.238 18.8624V28.7077H169.47V15.645H171.21L177.106 25.4075V15.645H178.874V28.7077H177.189Z" fill="white"/>
<defs>
<linearGradient id="paint0_linear_42_5" x1="69.8017" y1="44.4766" x2="16.101" y2="44.4766" gradientUnits="userSpaceOnUse">
<stop stop-color="#FEE000"/>
<stop offset="0.42" stop-color="#FBBC0E"/>
<stop offset="0.78" stop-color="#F9A318"/>
<stop offset="1" stop-color="#F99B1C"/>
</linearGradient>
<linearGradient id="paint1_linear_42_5" x1="55.8691" y1="49.5718" x2="5.37191" y2="100.069" gradientUnits="userSpaceOnUse">
<stop stop-color="#EF4547"/>
<stop offset="1" stop-color="#C6186D"/>
</linearGradient>
<linearGradient id="paint2_linear_42_5" x1="5.13717" y1="-11.3367" x2="46.3689" y2="29.8951" gradientUnits="userSpaceOnUse">
<stop stop-color="#279E6F"/>
<stop offset="0.04" stop-color="#2B9F6E"/>
<stop offset="0.46" stop-color="#52B16B"/>
<stop offset="0.8" stop-color="#6BBC69"/>
<stop offset="1" stop-color="#74C169"/>
</linearGradient>
</defs>
</svg>
