<svg width="231" height="180" viewBox="0 0 231 180" fill="none" xmlns="http://www.w3.org/2000/svg">
<path d="M230 77.2626V155.805C230 155.9 229.996 155.995 229.991 156.096C229.991 156.141 229.987 156.187 229.982 156.232C229.982 156.273 229.978 156.319 229.974 156.364C229.974 156.383 229.969 156.401 229.969 156.419C229.965 156.45 229.96 156.478 229.955 156.505C229.951 156.573 229.937 156.642 229.928 156.71C229.919 156.774 229.905 156.842 229.891 156.906C229.887 156.937 229.878 156.969 229.869 157.001C229.869 157.024 229.864 157.051 229.855 157.074C229.85 157.105 229.841 157.137 229.832 157.169C229.818 157.228 229.8 157.287 229.787 157.342C229.787 157.351 229.782 157.365 229.777 157.374C229.745 157.474 229.718 157.574 229.682 157.669C229.682 157.674 229.682 157.679 229.677 157.683C229.659 157.733 229.641 157.783 229.623 157.829C229.605 157.875 229.586 157.916 229.573 157.957C229.569 157.971 229.559 157.984 229.559 157.993C229.505 158.117 229.45 158.243 229.386 158.362C229.368 158.398 229.345 158.444 229.322 158.485C229.3 158.526 229.277 158.562 229.254 158.603C229.231 158.639 229.213 158.68 229.186 158.716C229.14 158.794 229.091 158.871 229.04 158.944C229.008 158.994 228.976 159.035 228.949 159.08C228.872 159.18 228.799 159.281 228.717 159.376C228.658 159.448 228.599 159.517 228.54 159.58C228.48 159.649 228.417 159.713 228.353 159.776C228.326 159.809 228.294 159.836 228.262 159.867C228.235 159.894 228.208 159.922 228.176 159.944C228.144 159.976 228.108 160.008 228.071 160.04C228.062 160.048 228.048 160.058 228.039 160.067C227.952 160.144 227.861 160.217 227.77 160.285C227.761 160.29 227.752 160.299 227.743 160.308C227.671 160.358 227.597 160.413 227.52 160.463C227.493 160.481 227.47 160.499 227.448 160.513C227.407 160.54 227.365 160.567 227.325 160.59C227.294 160.613 227.261 160.632 227.225 160.65C227.188 160.673 227.152 160.695 227.115 160.714C226.861 160.86 226.592 160.982 226.314 161.082C226.296 161.086 226.283 161.096 226.265 161.1C226.246 161.105 226.224 161.114 226.205 161.118C226.141 161.141 226.078 161.164 226.009 161.182C225.896 161.219 225.782 161.246 225.668 161.273C225.609 161.287 225.55 161.3 225.491 161.314C225.454 161.323 225.414 161.328 225.377 161.333C225.332 161.342 225.282 161.351 225.236 161.36C225.228 161.36 225.222 161.36 225.218 161.364C225.181 161.369 225.145 161.373 225.104 161.378C225.086 161.378 225.068 161.383 225.05 161.383C225.018 161.387 224.982 161.391 224.95 161.396C224.932 161.396 224.914 161.4 224.891 161.4C224.823 161.405 224.75 161.41 224.681 161.414C224.581 161.418 224.481 161.423 224.381 161.423H85.6196C85.5198 161.423 85.4194 161.418 85.3196 161.414C85.2514 161.41 85.1788 161.405 85.1106 161.4C85.0336 161.396 84.9558 161.386 84.8788 161.373C84.8333 161.369 84.7879 161.364 84.7468 161.355C84.6375 161.341 84.5282 161.318 84.4241 161.295C84.3918 161.291 84.3647 161.281 84.3331 161.273C84.2195 161.245 84.1058 161.218 83.9921 161.182C83.9239 161.159 83.8601 161.141 83.7963 161.118C83.4911 161.013 83.1956 160.881 82.9132 160.731C82.845 160.69 82.7768 160.649 82.7086 160.608C82.6316 160.563 82.5538 160.513 82.4812 160.462C82.0309 160.157 81.6304 159.793 81.2842 159.374C81.2021 159.279 81.1251 159.179 81.0525 159.074C80.8024 158.728 80.5926 158.356 80.4291 157.955C80.3924 157.864 80.3564 157.764 80.3198 157.668C80.2831 157.573 80.256 157.473 80.2244 157.373C80.1973 157.272 80.1702 157.173 80.1474 157.073C80.1247 156.978 80.1063 156.887 80.088 156.79C80.0836 156.777 80.0836 156.759 80.0792 156.745C80.0653 156.654 80.0521 156.559 80.0425 156.468C80.0381 156.463 80.0381 156.454 80.0381 156.445C80.0293 156.372 80.0242 156.304 80.0198 156.232C80.0059 156.091 80.0015 155.949 80.0015 155.804V77.2626C80.0015 76.5894 80.1195 75.9432 80.3381 75.3425C80.6843 74.3912 81.2798 73.5588 82.0492 72.9266C82.0588 72.9178 82.072 72.9082 82.0859 72.8994L82.3771 72.6765C83.2917 72.0259 84.4109 71.6438 85.621 71.6438H224.383C224.519 71.6438 224.651 71.6482 224.783 71.6621C224.806 71.6577 224.833 71.6621 224.856 71.6665C224.983 71.6753 225.115 71.6893 225.238 71.7076C225.265 71.712 225.297 71.7164 225.324 71.7215C225.434 71.7399 225.543 71.7626 225.647 71.7898C225.674 71.7942 225.701 71.7986 225.729 71.8081C225.861 71.8396 225.989 71.8763 226.116 71.9174C226.234 71.954 226.357 71.9995 226.471 72.045C226.634 72.1088 226.793 72.1858 226.948 72.268C227.035 72.309 227.121 72.3545 227.203 72.4044C227.349 72.4865 227.489 72.5775 227.621 72.6772C227.626 72.6728 227.626 72.6772 227.626 72.6772L227.917 72.9002C227.931 72.9097 227.944 72.9185 227.954 72.9273C228.031 72.9867 228.1 73.0505 228.168 73.1136C228.222 73.1591 228.273 73.2089 228.323 73.2596C228.477 73.4099 228.623 73.5691 228.76 73.7422C228.824 73.8192 228.882 73.8969 228.937 73.9739C229.174 74.2966 229.374 74.6472 229.534 75.0205C229.579 75.121 229.62 75.2252 229.661 75.33C229.661 75.3344 229.666 75.3388 229.666 75.344C229.729 75.5127 229.779 75.685 229.825 75.8581C229.847 75.9447 229.866 76.0268 229.884 76.1126C229.898 76.1808 229.911 76.2446 229.921 76.3128C229.934 76.3811 229.944 76.4493 229.952 76.5175C229.966 76.5996 229.975 76.681 229.979 76.7632C229.988 76.8314 229.993 76.904 229.993 76.9722C229.998 77.0676 230.002 77.168 230.002 77.2634L230 77.2626Z" fill="#DFE5EA"/>
<path d="M229.663 75.3426H80.3367C80.6829 74.3913 81.2784 73.5588 82.0478 72.9266C82.0573 72.9178 82.0705 72.9083 82.0844 72.8995L82.3756 72.6765L151.558 20.1604C153.591 18.6135 156.408 18.6135 158.442 20.1604L227.62 72.6765C227.624 72.6721 227.624 72.6765 227.624 72.6765L227.916 72.8995C227.93 72.909 227.943 72.9178 227.952 72.9266C228.029 72.986 228.098 73.0498 228.166 73.1129C228.221 73.1584 228.271 73.2083 228.321 73.2589C228.476 73.4092 228.621 73.5684 228.758 73.7415C228.822 73.8185 228.881 73.8962 228.936 73.9732C229.173 74.296 229.373 74.6465 229.532 75.0198C229.578 75.1203 229.619 75.2245 229.66 75.3294C229.66 75.3338 229.664 75.3382 229.664 75.3433L229.663 75.3426Z" fill="#5B97EF"/>
<path d="M98.9769 29.0378H209.171C214.723 29.0378 219.23 33.5448 219.23 39.0969V157.336H88.9178V39.0962C88.9178 33.5448 93.4248 29.0371 98.9769 29.0371V29.0378Z" fill="white"/>
<path d="M201.951 51.5117H106.198C104.851 51.5117 103.759 52.6035 103.759 53.9504V54.9882C103.759 56.335 104.851 57.4269 106.198 57.4269H201.951C203.298 57.4269 204.39 56.335 204.39 54.9882V53.9504C204.39 52.6035 203.298 51.5117 201.951 51.5117Z" fill="#E4ECF9"/>
<path d="M106.198 64.1482H201.951C203.296 64.1482 204.39 65.241 204.39 66.5876V67.6247C204.39 68.9705 203.297 70.0641 201.951 70.0641H106.198C104.852 70.0641 103.759 68.9713 103.759 67.6254V66.5883C103.759 65.2425 104.852 64.1497 106.198 64.1497V64.1482Z" fill="#E4ECF9"/>
<path d="M106.198 76.7844H201.951C203.296 76.7844 204.39 77.8772 204.39 79.2238V80.2609C204.39 81.6068 203.297 82.6996 201.951 82.6996H106.198C104.852 82.6996 103.759 81.6068 103.759 80.2609V79.2238C103.759 77.878 104.852 76.7852 106.198 76.7852V76.7844Z" fill="#E4ECF9"/>
<path d="M106.198 89.4216H201.951C203.296 89.4216 204.39 90.5145 204.39 91.861V92.8981C204.39 94.244 203.297 95.3368 201.951 95.3368H106.198C104.852 95.3368 103.759 94.244 103.759 92.8981V91.861C103.759 90.5152 104.852 89.4216 106.198 89.4216H106.198Z" fill="#E4ECF9"/>
<path d="M106.198 102.058H201.951C203.296 102.058 204.39 103.151 204.39 104.497V105.534C204.39 106.88 203.297 107.973 201.951 107.973H106.198C104.852 107.973 103.759 106.88 103.759 105.534V104.497C103.759 103.151 104.852 102.059 106.198 102.059V102.058Z" fill="#E4ECF9"/>
<path d="M155.003 118.641V118.645C154.784 118.882 154.525 119.1 154.229 119.283L85.9284 161.424H85.6188C85.0504 161.424 84.504 161.342 83.9899 161.183C83.9173 161.16 83.8439 161.138 83.7757 161.115C82.8795 160.805 82.083 160.273 81.4595 159.581C81.4001 159.517 81.3415 159.449 81.282 159.377C81.109 159.172 80.9542 158.949 80.8134 158.717C80.7635 158.639 80.7224 158.562 80.677 158.485C80.6359 158.403 80.5904 158.321 80.5545 158.239C80.1995 157.502 79.9993 156.678 79.9993 155.805V77.2626C79.9993 76.5894 80.1174 75.9432 80.3359 75.3425C80.6821 74.3912 81.2776 73.5588 82.047 72.9266C82.0566 72.9178 82.0698 72.9082 82.0837 72.8994L82.3749 72.6765C83.2895 72.0259 84.4087 71.6438 85.6188 71.6438H86.9016L92.8989 75.3432L148.182 109.455L150.261 110.737L154.229 113.186C154.524 113.367 154.784 113.586 155.003 113.822V113.827C156.235 115.178 156.235 117.294 155.003 118.641Z" fill="#3B82F4"/>
<path d="M230 77.2626V155.805C230 155.9 229.996 155.995 229.991 156.096C229.991 156.141 229.987 156.187 229.982 156.232C229.982 156.273 229.978 156.319 229.974 156.364C229.974 156.383 229.969 156.401 229.969 156.419C229.965 156.45 229.96 156.478 229.955 156.505C229.951 156.573 229.937 156.642 229.928 156.71C229.919 156.774 229.905 156.842 229.891 156.906C229.891 156.914 229.887 156.928 229.887 156.937C229.883 156.956 229.878 156.978 229.869 157.001C229.869 157.024 229.864 157.051 229.855 157.074C229.85 157.105 229.841 157.137 229.832 157.169C229.818 157.228 229.805 157.283 229.787 157.342C229.787 157.351 229.782 157.365 229.777 157.374C229.75 157.474 229.718 157.574 229.682 157.669C229.682 157.674 229.682 157.679 229.677 157.683C229.659 157.733 229.646 157.778 229.623 157.829C229.609 157.87 229.591 157.911 229.573 157.957C229.569 157.965 229.564 157.979 229.559 157.993C229.505 158.117 229.45 158.243 229.386 158.362C229.368 158.398 229.345 158.444 229.322 158.485C229.3 158.526 229.277 158.562 229.254 158.603C229.231 158.64 229.213 158.68 229.186 158.717C229.14 158.794 229.091 158.871 229.04 158.944C229.008 158.994 228.976 159.035 228.949 159.08C228.872 159.185 228.794 159.281 228.717 159.376C228.658 159.448 228.599 159.517 228.54 159.581C228.48 159.649 228.417 159.713 228.353 159.776C228.326 159.809 228.294 159.836 228.262 159.867C228.235 159.894 228.208 159.922 228.176 159.944C228.144 159.976 228.108 160.008 228.071 160.04C228.062 160.048 228.048 160.058 228.039 160.067C227.952 160.144 227.861 160.217 227.77 160.285C227.761 160.29 227.752 160.299 227.743 160.308C227.671 160.358 227.597 160.413 227.52 160.463C227.493 160.481 227.47 160.499 227.448 160.513C227.407 160.54 227.365 160.567 227.325 160.59C227.294 160.613 227.261 160.632 227.225 160.65C227.188 160.673 227.152 160.695 227.115 160.714C226.861 160.86 226.592 160.982 226.314 161.082C226.296 161.086 226.278 161.096 226.265 161.1C226.246 161.105 226.224 161.114 226.205 161.119C226.141 161.141 226.078 161.164 226.009 161.182C225.896 161.219 225.782 161.246 225.668 161.273C225.609 161.287 225.55 161.3 225.491 161.314C225.454 161.323 225.414 161.328 225.377 161.333C225.332 161.342 225.282 161.351 225.236 161.36H225.222C225.181 161.364 225.14 161.374 225.104 161.378C225.086 161.378 225.068 161.383 225.05 161.383C225.019 161.387 224.986 161.391 224.95 161.396C224.932 161.396 224.914 161.4 224.891 161.4C224.823 161.405 224.75 161.41 224.681 161.414C224.581 161.418 224.481 161.423 224.381 161.423H224.072L155.771 119.281C155.476 119.099 155.216 118.881 155.003 118.644V118.639C153.765 117.288 153.765 115.181 155.003 113.825V113.821C155.217 113.585 155.476 113.366 155.771 113.184L159.734 110.736L161.813 109.453L217.1 75.3418L223.097 71.6423H224.38C224.516 71.6423 224.648 71.6467 224.78 71.6607C224.803 71.6563 224.83 71.6607 224.853 71.6651C224.98 71.6739 225.112 71.6878 225.235 71.7061C225.262 71.7105 225.294 71.7149 225.321 71.7201C225.431 71.7384 225.54 71.7611 225.644 71.7883C225.671 71.7927 225.698 71.7971 225.726 71.8066C225.858 71.8382 225.986 71.8748 226.113 71.9159C226.231 71.9526 226.354 71.998 226.468 72.0435C226.631 72.1073 226.79 72.1843 226.945 72.2665C227.032 72.3076 227.118 72.353 227.2 72.4029C227.346 72.4851 227.487 72.576 227.619 72.6757C227.623 72.6713 227.623 72.6757 227.623 72.6757L227.914 72.8987C227.928 72.9082 227.941 72.917 227.951 72.9258C228.028 72.9853 228.097 73.0491 228.165 73.1121C228.219 73.1576 228.27 73.2075 228.32 73.2581C228.474 73.4084 228.62 73.5676 228.757 73.7407C228.821 73.8177 228.879 73.8954 228.934 73.9725C229.171 74.2952 229.371 74.6458 229.531 75.0191C229.576 75.1195 229.617 75.2237 229.658 75.3286C229.658 75.333 229.663 75.3374 229.663 75.3425C229.726 75.5112 229.776 75.6836 229.822 75.8567C229.844 75.9432 229.863 76.0253 229.881 76.1112C229.895 76.1794 229.908 76.2432 229.918 76.3114C229.931 76.3796 229.941 76.4478 229.949 76.516C229.963 76.5982 229.972 76.6796 229.977 76.7617C229.985 76.8299 229.99 76.9025 229.99 76.9707C229.995 77.0661 229.999 77.1666 229.999 77.2619L230 77.2626Z" fill="#3B82F4"/>
<path opacity="0.29" d="M230 154.742V155.559C230 158.798 227.484 161.424 224.38 161.424H85.6196C82.5164 161.424 80 158.798 80 155.559V154.742L151.371 107.784C153.587 106.326 156.409 106.326 158.624 107.784L230 154.742Z" fill="#474747"/>
<path d="M230 155.022V155.805C230 158.908 227.484 161.424 224.38 161.424H85.6196C82.5164 161.424 80 158.907 80 155.805V155.022L151.371 110.036C153.587 108.64 156.409 108.64 158.624 110.036L230 155.022Z" fill="#5B97EF"/>
<path d="M147.958 38.8752H106.198C104.851 38.8752 103.759 39.9671 103.759 41.3139V42.3517C103.759 43.6986 104.851 44.7904 106.198 44.7904H147.958C149.305 44.7904 150.397 43.6986 150.397 42.3517V41.3139C150.397 39.9671 149.305 38.8752 147.958 38.8752Z" fill="#3B82F4"/>
<path d="M99.962 179.75C99.9454 179.75 99.9288 179.75 99.9122 179.749C97.7012 179.661 95.4756 179.47 93.2968 179.181C92.6261 179.092 92.1552 178.477 92.2439 177.807C92.3326 177.136 92.9487 176.662 93.6185 176.755C95.7232 177.034 97.8728 177.218 100.01 177.304C100.685 177.33 101.211 177.9 101.184 178.575C101.158 179.234 100.615 179.751 99.962 179.751V179.75ZM106.486 179.72C105.837 179.72 105.296 179.21 105.264 178.555C105.231 177.879 105.752 177.305 106.427 177.273C108.538 177.17 110.69 176.974 112.824 176.689C113.496 176.597 114.11 177.07 114.2 177.74C114.29 178.41 113.819 179.026 113.149 179.115C110.947 179.41 108.725 179.612 106.546 179.719C106.526 179.719 106.506 179.72 106.486 179.72ZM87.0352 178.03C86.9445 178.03 86.8519 178.02 86.7603 177.999C84.6136 177.506 82.4621 176.903 80.3642 176.207C79.7227 175.995 79.3747 175.302 79.5872 174.66C79.7997 174.019 80.4938 173.671 81.1343 173.884C83.1591 174.556 85.2366 175.138 87.3082 175.614C87.9672 175.766 88.3786 176.422 88.2265 177.081C88.0959 177.647 87.5919 178.031 87.0342 178.031L87.0352 178.03ZM119.417 178.006C118.853 178.006 118.345 177.613 118.221 177.039C118.079 176.378 118.5 175.728 119.161 175.585C121.236 175.139 123.336 174.605 125.4 173.996C126.048 173.806 126.73 174.176 126.92 174.825C127.111 175.473 126.741 176.154 126.091 176.345C123.969 176.971 121.811 177.519 119.675 177.979C119.588 177.997 119.501 178.007 119.416 178.007L119.417 178.006ZM131.941 174.331C131.444 174.331 130.977 174.026 130.793 173.534C130.557 172.9 130.879 172.196 131.513 171.96C133.513 171.214 135.517 170.387 137.473 169.501C138.088 169.221 138.814 169.495 139.093 170.11C139.372 170.727 139.099 171.452 138.483 171.731C136.478 172.639 134.42 173.488 132.369 174.253C132.227 174.305 132.083 174.33 131.942 174.33L131.941 174.331ZM74.6466 173.943C74.4857 173.943 74.3219 173.91 74.165 173.844C72.1831 172.995 70.17 172.043 68.1793 171.013C67.5788 170.703 67.3438 169.964 67.6538 169.364C67.9648 168.764 68.7038 168.527 69.3033 168.839C71.2414 169.84 73.2018 170.767 75.1291 171.593C75.7501 171.859 76.0377 172.58 75.7716 173.201C75.5727 173.665 75.1204 173.943 74.6456 173.943H74.6466ZM143.831 168.939C143.396 168.939 142.974 168.707 142.753 168.297C142.431 167.702 142.652 166.96 143.247 166.638C144.969 165.707 146.606 164.746 148.115 163.782C148.683 163.419 149.44 163.584 149.805 164.154C150.169 164.723 150.002 165.481 149.433 165.844C147.874 166.841 146.184 167.832 144.411 168.791C144.226 168.892 144.027 168.939 143.83 168.939H143.831ZM63.0447 167.954C62.8283 167.954 62.6089 167.896 62.411 167.777C60.5149 166.626 58.6529 165.407 56.8757 164.153C56.323 163.763 56.1914 163 56.5813 162.447C56.9713 161.895 57.7346 161.765 58.2873 162.153C60.0187 163.374 61.8329 164.561 63.6813 165.683C64.2594 166.034 64.4436 166.786 64.0927 167.364C63.8626 167.744 63.459 167.954 63.0457 167.954H63.0447ZM52.3816 160.414C52.1076 160.414 51.8317 160.323 51.6036 160.135C49.9444 158.768 48.3544 157.348 46.8736 155.914C46.7527 155.83 46.6484 155.723 46.5665 155.604C46.1804 155.129 46.2048 154.428 46.6425 153.979C47.0481 153.563 47.6778 153.499 48.1536 153.788C50.1365 154.233 52.1486 154.568 54.1412 154.789C54.8129 154.863 55.2974 155.469 55.2233 156.141C55.1492 156.813 54.5497 157.299 53.8721 157.223C53.1156 157.139 52.3562 157.039 51.5968 156.924C52.1106 157.37 52.6321 157.811 53.1615 158.247C53.683 158.677 53.7571 159.448 53.3272 159.971C53.0854 160.264 52.7345 160.416 52.3816 160.416V160.414ZM60.5217 157.562C59.851 157.562 59.3041 157.021 59.2983 156.348C59.2924 155.673 59.8354 155.12 60.511 155.113C62.216 155.098 63.9377 155 65.63 154.82C65.9771 154.783 66.3855 154.739 66.8925 154.678C67.5593 154.59 68.1725 155.077 68.2534 155.748C68.3333 156.419 67.8547 157.029 67.183 157.109C66.6644 157.171 66.2452 157.216 65.94 157.248C64.119 157.441 62.3164 157.544 60.5334 157.561H60.5227L60.5217 157.562ZM73.4914 156.05C72.925 156.05 72.4161 155.654 72.2952 155.078C72.1558 154.417 72.5789 153.768 73.2408 153.628C75.3728 153.18 77.4659 152.64 79.4614 152.024C80.1097 151.827 80.7931 152.187 80.992 152.833C81.1918 153.479 80.8292 154.164 80.1829 154.363C78.1161 155 75.95 155.56 73.7448 156.024C73.66 156.042 73.5742 156.05 73.4914 156.05ZM41.31 154.319C41.1755 154.319 41.039 154.296 40.9045 154.249C38.829 153.52 36.7593 152.661 34.753 151.7C34.1437 151.407 33.8864 150.676 34.1788 150.066C34.4713 149.457 35.2025 149.201 35.8117 149.492C37.7371 150.416 39.7229 151.24 41.7155 151.94C42.3531 152.164 42.6885 152.863 42.4642 153.501C42.2878 154.005 41.815 154.32 41.31 154.32V154.319ZM85.958 152.175C85.4832 152.175 85.0318 151.897 84.833 151.434C84.5659 150.813 84.8534 150.093 85.4744 149.826C87.4914 148.96 89.4032 147.992 91.1569 146.95C91.737 146.605 92.4886 146.795 92.8347 147.377C93.1798 147.958 92.9887 148.709 92.4077 149.054C90.5623 150.151 88.555 151.168 86.4415 152.076C86.2836 152.144 86.1198 152.176 85.9589 152.176L85.958 152.175ZM43.0755 151.283C42.7265 151.283 42.3794 151.134 42.1377 150.846C40.6666 149.095 39.3242 147.297 38.1475 145.501C37.7771 144.935 37.935 144.176 38.5004 143.807C39.0659 143.436 39.8243 143.594 40.1948 144.159C41.3188 145.874 42.6027 147.595 44.0114 149.273C44.4461 149.79 44.3789 150.562 43.8612 150.997C43.6321 151.189 43.3523 151.284 43.0745 151.284L43.0755 151.283ZM29.558 148.686C29.3376 148.686 29.1154 148.626 28.9146 148.502C27.036 147.34 25.1974 146.063 23.4494 144.705C22.9152 144.291 22.8177 143.522 23.233 142.989C23.6483 142.455 24.4165 142.358 24.9507 142.772C26.6314 144.076 28.3988 145.304 30.2043 146.42C30.7795 146.776 30.9569 147.531 30.6011 148.105C30.37 148.479 29.9694 148.685 29.5589 148.685L29.558 148.686ZM97.1114 145.465C96.7624 145.465 96.4154 145.316 96.1736 145.028C95.7388 144.51 95.8061 143.738 96.3237 143.304C97.9703 141.921 99.4511 140.416 100.725 138.83C101.149 138.303 101.92 138.22 102.446 138.643C102.972 139.066 103.057 139.836 102.633 140.364C101.26 142.073 99.6656 143.693 97.8972 145.178C97.6681 145.371 97.3883 145.465 97.1105 145.465H97.1114ZM19.2634 140.696C18.9582 140.696 18.6521 140.583 18.4143 140.354C16.8155 138.815 15.2869 137.177 13.8733 135.486C13.4395 134.967 13.5087 134.195 14.0273 133.762C14.546 133.329 15.3181 133.397 15.7509 133.916C17.1089 135.54 18.5761 137.112 20.1115 138.59C20.5989 139.058 20.6136 139.833 20.1446 140.32C19.9038 140.57 19.5841 140.697 19.2624 140.697L19.2634 140.696ZM35.9872 140.361C35.5261 140.361 35.0845 140.1 34.8768 139.654C33.9059 137.567 33.127 135.442 32.5615 133.336C32.3861 132.683 32.7731 132.012 33.4262 131.837C34.0794 131.658 34.7501 132.05 34.9256 132.702C35.4549 134.671 36.1851 136.662 37.0956 138.62C37.3813 139.233 37.1151 139.962 36.5019 140.246C36.3352 140.323 36.1588 140.36 35.9862 140.36L35.9872 140.361ZM105.184 135.339C105.002 135.339 104.818 135.298 104.643 135.212C104.037 134.912 103.788 134.179 104.089 133.572C104.948 131.832 105.639 129.974 106.14 128.05L106.228 127.704C106.392 127.048 107.058 126.648 107.713 126.814C108.369 126.977 108.768 127.642 108.604 128.298L108.511 128.667C107.967 130.753 107.218 132.768 106.284 134.656C106.07 135.088 105.637 135.339 105.185 135.339H105.184ZM10.9117 130.697C10.5149 130.697 10.1259 130.503 9.89001 130.148C8.6646 128.299 7.53473 126.363 6.53159 124.392C6.2245 123.79 6.46432 123.053 7.06679 122.745C7.66828 122.437 8.40626 122.678 8.71237 123.281C9.67359 125.168 10.7567 127.024 11.9304 128.796C12.3038 129.359 12.1498 130.118 11.5863 130.492C11.3786 130.629 11.1437 130.696 10.9107 130.696L10.9117 130.697ZM32.6736 127.825C32.0341 127.825 31.495 127.327 31.4531 126.68C31.4083 125.983 31.3849 125.275 31.3849 124.574C31.3849 123.025 31.497 121.459 31.7183 119.917C31.8148 119.248 32.4309 118.784 33.1036 118.879C33.7723 118.976 34.2373 119.596 34.1408 120.264C33.9361 121.691 33.8318 123.14 33.8318 124.573C33.8318 125.222 33.8532 125.877 33.8952 126.52C33.939 127.196 33.4272 127.777 32.7526 127.821C32.7263 127.823 32.699 127.824 32.6727 127.824L32.6736 127.825ZM108.339 122.773C108.32 122.773 108.303 122.773 108.285 122.772C107.61 122.743 107.086 122.171 107.116 121.496C107.136 121.023 107.146 120.55 107.146 120.077C107.146 118.473 107.029 116.837 106.797 115.212C106.701 114.542 107.166 113.923 107.836 113.827C108.505 113.732 109.125 114.197 109.22 114.867C109.468 116.605 109.594 118.358 109.594 120.076C109.594 120.584 109.583 121.092 109.561 121.601C109.533 122.258 108.991 122.773 108.34 122.773H108.339ZM4.99812 119.089C4.50191 119.089 4.03495 118.785 3.85168 118.292C3.0825 116.231 2.41764 114.092 1.87367 111.931C1.70892 111.275 2.10666 110.61 2.76177 110.446C3.41786 110.283 4.08272 110.679 4.24747 111.335C4.76903 113.407 5.40659 115.46 6.14456 117.436C6.38146 118.07 6.05975 118.775 5.42609 119.012C5.28473 119.064 5.14045 119.089 4.99812 119.089ZM34.4703 114.98C34.3397 114.98 34.2071 114.959 34.0765 114.914C33.437 114.697 33.0938 114.002 33.3112 113.361C34.0112 111.302 34.9012 109.229 35.958 107.196C36.2709 106.597 37.0089 106.364 37.6094 106.676C38.2089 106.988 38.4429 107.727 38.13 108.327C37.1307 110.249 36.2894 112.208 35.6285 114.15C35.4559 114.66 34.9792 114.981 34.4693 114.981L34.4703 114.98ZM106.536 109.911C106.02 109.911 105.539 109.582 105.371 109.062C104.73 107.071 103.915 105.104 102.951 103.219C102.643 102.616 102.882 101.879 103.483 101.571C104.085 101.263 104.823 101.502 105.131 102.104C106.155 104.106 107.02 106.195 107.702 108.311C107.91 108.954 107.556 109.644 106.913 109.852C106.788 109.892 106.661 109.911 106.536 109.911ZM1.80835 106.453C1.20881 106.453 0.68433 106.012 0.597566 105.402C0.290483 103.234 0.0896602 101.005 0.000947248 98.7784C-0.0253742 98.1028 0.50008 97.5335 1.17469 97.5071C1.86782 97.4837 2.41959 98.0063 2.44689 98.6809C2.53268 100.826 2.7257 102.971 3.02109 105.057C3.11565 105.727 2.64966 106.346 1.9809 106.441C1.92241 106.45 1.86489 106.453 1.80835 106.453ZM40.4424 103.414C40.1987 103.414 39.953 103.342 39.7385 103.191C39.1858 102.802 39.0532 102.038 39.4422 101.486C40.7153 99.6772 42.124 97.9254 43.6282 96.2778C44.0845 95.7787 44.8585 95.7436 45.3577 96.1989C45.8568 96.6551 45.8919 97.4292 45.4356 97.9283C44.0006 99.4998 42.6573 101.171 41.4436 102.893C41.2047 103.233 40.8265 103.413 40.4414 103.413L40.4424 103.414ZM100.621 98.3319C100.244 98.3319 99.8723 98.1584 99.6324 97.8308C98.3768 96.117 96.9847 94.5084 95.4951 93.05C95.0125 92.5772 95.0038 91.8022 95.4766 91.3187C95.9494 90.8361 96.7234 90.8264 97.2079 91.3002C98.7931 92.8512 100.274 94.5621 101.609 96.3841C102.008 96.93 101.889 97.6953 101.344 98.095C101.127 98.2549 100.873 98.3319 100.622 98.3319H100.621ZM49.2308 93.7948C48.8837 93.7948 48.5386 93.6476 48.2969 93.362C47.8601 92.8463 47.9235 92.0742 48.4392 91.6365C50.1618 90.1761 51.9731 88.8396 53.8215 87.6629C54.3918 87.2993 55.1492 87.468 55.5109 88.0382C55.8735 88.6086 55.7059 89.365 55.1356 89.7277C53.3798 90.8449 51.6602 92.1152 50.0214 93.5043C49.7913 93.6993 49.5106 93.7948 49.2308 93.7948ZM1.2829 93.4263C1.2595 93.4263 1.23513 93.4263 1.21173 93.4244C0.537125 93.3854 0.0214195 92.8073 0.0594393 92.1317C0.188122 89.8856 0.426965 87.661 0.770118 85.5192C0.876379 84.8524 1.50322 84.3971 2.17198 84.5034C2.83976 84.6096 3.29405 85.2375 3.18779 85.9052C2.85829 87.9661 2.62919 90.1089 2.50441 92.2721C2.46639 92.9233 1.92729 93.4263 1.2829 93.4263ZM91.3061 89.2666C91.0692 89.2666 90.8304 89.1983 90.6198 89.055C88.8563 87.8589 87.0021 86.8489 85.1089 86.0534C84.4859 85.7912 84.1925 85.0737 84.4547 84.4507C84.717 83.8268 85.4364 83.5344 86.0574 83.7966C88.0988 84.6555 90.0963 85.7424 91.9934 87.0293C92.553 87.4085 92.6992 88.1699 92.319 88.7294C92.0821 89.0784 91.697 89.2666 91.3051 89.2666H91.3061ZM60.2263 86.8401C59.7555 86.8401 59.307 86.5672 59.1052 86.108C58.8332 85.489 59.115 84.7666 59.733 84.4946C61.8319 83.5724 63.9757 82.8422 66.1038 82.3245C66.7609 82.1637 67.4228 82.5673 67.5827 83.2244C67.7426 83.8814 67.339 84.5433 66.6829 84.7032C64.6942 85.1868 62.6869 85.8711 60.7186 86.7358C60.5588 86.806 60.3911 86.8392 60.2273 86.8392L60.2263 86.8401ZM79.3435 84.286C79.2704 84.286 79.1963 84.2792 79.1222 84.2655C77.4503 83.9604 75.7316 83.8054 74.0158 83.8054C73.6698 83.7995 73.2642 83.8122 72.8889 83.8268C72.2114 83.8639 71.645 83.3257 71.6186 82.6511C71.5923 81.9755 72.1187 81.4062 72.7943 81.3809C73.2009 81.3653 73.6366 81.3731 74.0158 81.3575C75.8788 81.3575 77.7437 81.5252 79.5609 81.8576C80.2257 81.9794 80.6664 82.617 80.5455 83.2819C80.4373 83.8726 79.9226 84.286 79.3425 84.286H79.3435ZM3.38569 80.5639C3.27553 80.5639 3.16439 80.5493 3.05326 80.5181C2.40205 80.3348 2.0238 79.6593 2.2061 79.008C2.80369 76.8848 3.52509 74.7654 4.35081 72.7104C4.60232 72.0826 5.31593 71.7794 5.94374 72.0309C6.57058 72.2834 6.87474 72.996 6.62323 73.6239C5.82968 75.597 5.13655 77.6315 4.56333 79.671C4.41125 80.211 3.91992 80.5639 3.38569 80.5639ZM8.23663 68.4775C8.04361 68.4775 7.84668 68.4317 7.66438 68.3342C7.06679 68.0174 6.83965 67.2765 7.15648 66.6799C8.18691 64.7379 9.33628 62.8184 10.5734 60.973C10.9507 60.4124 11.7111 60.2613 12.2716 60.6386C12.8331 61.0149 12.9823 61.7753 12.606 62.3368C11.4157 64.1121 10.3092 65.9585 9.31873 67.8263C9.09939 68.2406 8.67532 68.4775 8.23663 68.4775ZM15.4916 57.6467C15.2167 57.6467 14.9408 57.5551 14.7127 57.366C14.1921 56.9351 14.118 56.164 14.5489 55.6424C15.9488 53.9481 17.455 52.2957 19.0255 50.731C19.5042 50.2543 20.2801 50.2553 20.7569 50.734C21.2345 51.2126 21.2326 51.9876 20.7539 52.4653C19.239 53.9754 17.7864 55.5693 16.4362 57.2032C16.1945 57.4956 15.8445 57.6467 15.4926 57.6467H15.4916ZM24.7255 48.4362C24.3726 48.4362 24.0227 48.2841 23.7809 47.9907C23.35 47.4691 23.4241 46.698 23.9457 46.2681C25.639 44.8701 27.425 43.5277 29.2538 42.278C29.8114 41.8968 30.5738 42.0401 30.955 42.5977C31.3361 43.1563 31.1928 43.9177 30.6352 44.2989C28.8668 45.5077 27.1403 46.8052 25.5035 48.1554C25.2754 48.3436 24.9995 48.4362 24.7246 48.4362H24.7255ZM35.4959 41.072C35.0679 41.072 34.6516 40.8468 34.4274 40.4462C34.097 39.8564 34.3065 39.1106 34.8963 38.7801C36.811 37.7068 38.8046 36.6998 40.8216 35.7892C41.4377 35.5094 42.163 35.7844 42.4408 36.4005C42.7197 37.0166 42.4457 37.7419 41.8296 38.0197C39.8769 38.902 37.9477 39.8759 36.0935 40.9151C35.9044 41.0213 35.6987 41.072 35.4959 41.072ZM47.3863 35.6947C46.8823 35.6947 46.4095 35.3808 46.2321 34.8787C46.0069 34.2411 46.3413 33.5422 46.9789 33.317C49.0485 32.5858 51.1805 31.9317 53.3155 31.3721C53.9677 31.2005 54.6384 31.5924 54.81 32.2466C54.9815 32.9007 54.5896 33.5695 53.9355 33.741C51.8659 34.2831 49.8001 34.9177 47.7948 35.6255C47.6593 35.6732 47.5219 35.6956 47.3873 35.6956L47.3863 35.6947Z" fill="#00458E"/>
<path opacity="0.1" d="M108.435 1.896L16.0785 14.2183L38.4693 31.2025L38.8202 62.4606L58.1148 46.0712L68.9573 54.2464L108.435 1.896Z" fill="#232323"/>
<path d="M40.8352 60.5646L40.3234 14.9048L110.45 0L40.8352 60.5646Z" fill="#46C1AA"/>
<path d="M40.6363 29.4215C40.9912 29.2431 110.45 0 110.45 0L18.0935 12.3233L40.6363 29.4215Z" fill="#52D1BD"/>
<path d="M48.292 35.2492L40.8352 60.5646L72.8167 33.3999L48.292 35.2492Z" fill="#3CAF99"/>
<path d="M48.292 35.2493L70.9723 52.3514L110.45 0L48.292 35.2493Z" fill="#52D1BD"/>
</svg>
