<svg width="140" height="132" viewBox="0 0 140 132" fill="none" xmlns="http://www.w3.org/2000/svg">
<path d="M127.695 16.4062H36.9141C34.6169 16.4062 32.8125 18.2107 32.8125 20.5078V102.539C32.8125 104.836 34.6169 106.641 36.9141 106.641H84.9569L108.418 130.019C110.961 132.644 115.391 130.84 115.391 127.149V106.641H127.695C134.504 106.641 140 101.144 140 94.3361V28.711C140 21.9024 134.504 16.4062 127.695 16.4062Z" fill="#46A0E2"/>
<path d="M103.086 0H12.3047C5.49583 0 0 5.49583 0 12.3047V77.9298C0 84.7382 5.49583 90.2346 12.3047 90.2346H24.6094V110.742C24.6094 114.434 29.0388 116.238 31.5818 113.613L55.59 90.2346H103.086C109.895 90.2346 115.391 84.7382 115.391 77.9298V12.3047C115.391 5.4961 109.895 0 103.086 0Z" fill="#8FC7EE"/>
<path d="M78.4767 32.8125H20.5079C15.0941 32.8125 15.0941 24.6094 20.5079 24.6094H78.4767C83.8905 24.6094 83.8905 32.8125 78.4767 32.8125Z" fill="#CAE8F9"/>
<path d="M94.883 49.2188H20.5078C18.2107 49.2188 16.4062 47.4138 16.4062 45.1172C16.4062 42.82 18.2107 41.0156 20.5078 41.0156H94.883C100.297 41.0156 100.297 49.2188 94.883 49.2188Z" fill="#CAE8F9"/>
<path d="M62.0704 65.625H20.5079C15.0941 65.625 15.0941 57.4219 20.5079 57.4219H62.0704C67.4842 57.4219 67.4842 65.625 62.0704 65.625Z" fill="#CAE8F9"/>
</svg>
