<svg width="130" height="130" viewBox="0 0 130 130" fill="none" xmlns="http://www.w3.org/2000/svg">
<g clip-path="url(#clip0_249_1509)">
<path d="M65 0C29.2754 0 0 29.2754 0 65C0 100.725 29.2754 130 65 130C100.725 130 130 100.725 130 65C130 29.2754 100.725 0 65 0Z" fill="#46A0E2"/>
<path d="M110.703 65C110.703 90.2129 90.2129 110.703 65 110.703C39.7871 110.703 19.2969 90.2129 19.2969 65C19.2969 55.0215 22.4958 45.5762 28.4375 37.5784C29.8848 35.6741 32.0935 34.5312 34.5312 34.5312C36.2068 34.5312 37.8066 35.0645 39.1013 36.0547C42.4529 38.5686 43.1387 43.3669 40.6247 46.7185C36.6643 52.0508 34.5312 58.373 34.5312 65C34.5312 81.8342 48.1658 95.4688 65 95.4688C81.8342 95.4688 95.4688 81.8342 95.4688 65C95.4688 58.373 93.3357 52.0508 89.375 46.7185C86.8611 43.3669 87.5469 38.6443 90.8984 36.0547C92.1931 35.0645 93.793 34.5312 95.4685 34.5312C97.906 34.5312 100.115 35.6741 101.562 37.5784C107.504 45.5762 110.703 55.0215 110.703 65Z" fill="#CAE8F9"/>
<path d="M72.6172 26.9141V65C72.6172 69.1895 69.1895 72.6172 65 72.6172C60.8105 72.6172 57.3828 69.1895 57.3828 65V26.9141C57.3828 22.7246 60.8105 19.2969 65 19.2969C69.1895 19.2969 72.6172 22.7246 72.6172 26.9141Z" fill="#CAE8F9"/>
</g>
<defs>
<clipPath id="clip0_249_1509">
<rect width="130" height="130" fill="white"/>
</clipPath>
</defs>
</svg>
