<svg width="100" height="132" viewBox="0 0 100 132" fill="none" xmlns="http://www.w3.org/2000/svg">
<path d="M96.1539 15.6411H19.2308C17.0767 15.6411 15.3846 17.3332 15.3846 19.4873V127.436C15.3846 129.59 17.0767 131.282 19.2308 131.282H96.1539C98.308 131.282 100 129.59 100 127.436V19.4873C100 17.3332 98.308 15.6411 96.1539 15.6411Z" fill="#46A0E2"/>
<path d="M80.7692 0H3.84615C1.69205 0 0 1.69205 0 3.84615V112.051C0 114.205 1.69205 115.897 3.84615 115.897H80.7692C82.9233 115.897 84.6154 114.205 84.6154 112.051V3.84615C84.6154 1.69205 82.9233 0 80.7692 0Z" fill="#8FC7EE"/>
<path d="M46.1539 27.1795C46.1539 29.3331 44.4618 31.0257 42.3077 31.0257H19.2308C17.0767 31.0257 15.3846 29.3331 15.3846 27.1795C15.3846 25.0254 17.0767 23.3334 19.2308 23.3334H42.3077C44.4618 23.3334 46.1539 25.0254 46.1539 27.1795Z" fill="#CAE8F9"/>
<path d="M69.2308 42.5642C69.2308 44.7178 67.5387 46.4103 65.3846 46.4103H19.2308C17.0767 46.4103 15.3846 44.7178 15.3846 42.5642C15.3846 40.4101 17.0767 38.718 19.2308 38.718H65.3846C67.5387 38.718 69.2308 40.4101 69.2308 42.5642Z" fill="#CAE8F9"/>
<path d="M69.2308 57.9488C69.2308 60.1024 67.5387 61.795 65.3846 61.795H19.2308C17.0767 61.795 15.3846 60.1024 15.3846 57.9488C15.3846 55.7947 17.0767 54.1027 19.2308 54.1027H65.3846C67.5387 54.1027 69.2308 55.7947 69.2308 57.9488Z" fill="#CAE8F9"/>
<path d="M69.2308 73.3333C69.2308 75.4869 67.5387 77.1795 65.3846 77.1795H19.2308C17.0767 77.1795 15.3846 75.4869 15.3846 73.3333C15.3846 71.1792 17.0767 69.4872 19.2308 69.4872H65.3846C67.5387 69.4872 69.2308 71.1792 69.2308 73.3333Z" fill="#CAE8F9"/>
<path d="M65.3846 92.5641H50C47.8741 92.5641 46.1538 90.8439 46.1538 88.718C46.1538 86.5921 47.8741 84.8718 50 84.8718H65.3846C67.5105 84.8718 69.2307 86.5921 69.2307 88.718C69.2307 90.8439 67.5105 92.5641 65.3846 92.5641Z" fill="#CAE8F9"/>
</svg>
