<svg width="150" height="137" viewBox="0 0 150 137" fill="none" xmlns="http://www.w3.org/2000/svg">
<path d="M74.998 34.3164C96.8097 34.3164 114.518 52.0243 114.518 73.8359V116.364H35.4785V73.8359C35.4785 52.0243 53.1864 34.3164 74.998 34.3164Z" fill="#ED1C24"/>
<path d="M124.536 116.363H25.4657C22.0901 116.363 19.3535 119.1 19.3535 122.476V130.091C19.3535 133.466 22.0901 136.203 25.4657 136.203H124.536C127.912 136.203 130.648 133.466 130.648 130.091V122.476C130.648 119.1 127.912 116.363 124.536 116.363Z" fill="#333333"/>
<path d="M69.2686 41.0523C67.2936 41.1898 65.3119 41.5042 63.3615 42.029C61.4118 42.5531 59.4933 43.2919 57.6685 44.2634C55.8437 45.2334 54.114 46.4368 52.5471 47.8462C50.9847 49.2592 49.5858 50.8707 48.3749 52.6123C47.1626 54.3538 46.1361 56.2225 45.2768 58.1559L44.9654 58.885C44.8635 59.1288 44.7513 59.3712 44.6636 59.6187C44.4785 60.1115 44.2889 60.6051 44.1083 61.1023L43.6148 62.6038C43.4594 63.1063 43.3234 63.6125 43.177 64.1187C43.1718 64.1387 43.1658 64.1596 43.1606 64.1796C42.3051 67.3513 41.8895 70.6256 41.8851 73.911L41.8799 77.5176H49.5597V70.5416H49.5486C49.5397 68.8171 49.6058 67.0964 49.7753 65.3912C49.8281 64.9452 49.8712 64.494 49.9314 64.0481L50.1366 62.7146L50.3945 61.3944C50.4331 61.1715 50.4941 60.9589 50.5454 60.7403L50.7044 60.0877C51.1519 58.3558 51.7443 56.6655 52.5092 55.0533C53.2733 53.441 54.2099 51.9083 55.3278 50.4968C56.4502 49.0905 57.7555 47.8127 59.2153 46.6948C60.6744 45.5768 62.2874 44.6217 64.0045 43.8405C65.7215 43.0585 67.5404 42.449 69.4143 42.0038C71.2874 41.5563 73.2141 41.2642 75.16 41.1029C73.2141 40.9445 71.245 40.9155 69.2693 41.0545L69.2686 41.0523Z" fill="white"/>
<path d="M150 74.9997C150 77.6562 147.681 79.7167 145.043 79.4045L127.778 77.3597C126.582 77.2177 125.681 76.2038 125.681 74.9997C125.681 73.7948 126.582 72.7809 127.778 72.6397L145.043 70.5948C147.681 70.2826 150 72.3431 150 74.9997Z" fill="#ED1C24"/>
<path d="M0 74.9997C0 72.3431 2.31912 70.2826 4.95713 70.5948L22.222 72.6397C23.4179 72.7816 24.3196 73.7955 24.3196 74.9997C24.3196 76.2046 23.4187 77.2184 22.222 77.3597L4.95713 79.4045C2.31912 79.7167 0 77.6562 0 74.9997H0Z" fill="#ED1C24"/>
<path d="M139.951 37.5001C141.279 39.8006 140.301 42.7449 137.86 43.7937L121.885 50.6559C120.778 51.1316 119.491 50.7035 118.889 49.6606C118.287 48.6178 118.56 47.2887 119.525 46.5677L133.455 36.1644C135.583 34.5744 138.622 35.1996 139.951 37.5008V37.5001Z" fill="#ED1C24"/>
<path d="M112.498 10.0483C114.798 11.3766 115.424 14.4152 113.834 16.5441L103.431 30.4737C102.71 31.4385 101.382 31.712 100.338 31.1099C99.2953 30.5079 98.8671 29.2204 99.3428 28.1137L106.205 12.1392C107.254 9.69818 110.198 8.71999 112.499 10.0483H112.498Z" fill="#ED1C24"/>
<path d="M75.0006 0C77.6572 0 79.7177 2.31912 79.4055 4.95713L77.3606 22.222C77.2187 23.4179 76.2048 24.3196 75.0006 24.3196C73.7957 24.3196 72.7819 23.4187 72.6406 22.222L70.5958 4.95713C70.2836 2.31912 72.344 0 75.0006 0V0Z" fill="#ED1C24"/>
<path d="M37.5006 10.0483C39.8012 8.71999 42.7454 9.69818 43.7942 12.1392L50.6564 28.1137C51.1322 29.2204 50.704 30.5078 49.6611 31.1099C48.6183 31.712 47.2893 31.4392 46.5682 30.4737L36.1649 16.5441C34.575 14.416 35.2001 11.3766 37.5006 10.0483Z" fill="#ED1C24"/>
<path d="M10.0468 37.4998C11.3751 35.1993 14.4138 34.5742 16.5426 36.1634L30.4722 46.5667C31.437 47.2877 31.7105 48.616 31.1085 49.6596C30.5064 50.7025 29.219 51.1306 28.1122 50.6549L12.1377 43.7927C9.69672 42.7439 8.71852 39.7996 10.0468 37.4991V37.4998Z" fill="#ED1C24"/>
<g clip-path="url(#clip0_249_1491)">
<path d="M26.9163 61.132C19.6636 52.8014 20.5372 40.1681 28.8691 32.9153C37.2011 25.6625 49.833 26.5375 57.0858 34.8681C63.1802 41.8695 63.5358 51.9069 58.5497 59.2389L58.0511 66.4375L50.8525 65.9389C42.9038 69.8667 33.0108 68.1333 26.9163 61.132Z" fill="#FFC864"/>
<path d="M32.7625 54.1208C30.925 54.1208 29.4292 52.625 29.4292 50.7875C29.4292 50.1736 29.9264 49.6764 30.5403 49.6764C31.1542 49.6764 31.6514 50.1736 31.6514 50.7875C31.6514 51.4014 32.15 51.8986 32.7625 51.8986C33.375 51.8986 33.8736 51.4 33.8736 50.7875C33.8736 50.368 33.7098 49.9736 33.4139 49.6764L30.5403 46.8028C29.8236 46.0861 29.4292 45.1333 29.4292 44.1208C29.4292 42.2833 30.925 40.7875 32.7625 40.7875C34.6 40.7875 36.0959 42.2833 36.0959 44.1208C36.0959 44.7347 35.5986 45.2319 34.9848 45.2319C34.3709 45.2319 33.8736 44.7347 33.8736 44.1208C33.8736 43.5069 33.375 43.0097 32.7625 43.0097C32.15 43.0097 31.6514 43.5083 31.6514 44.1208C31.6514 44.5403 31.8153 44.9347 32.1111 45.2319L34.9848 48.1055C35.7014 48.8222 36.0959 49.775 36.0959 50.7875C36.0959 52.625 34.6 54.1208 32.7625 54.1208Z" fill="#E42A3C"/>
<path d="M51.6514 54.1208C49.8139 54.1208 48.3181 52.625 48.3181 50.7875C48.3181 50.1736 48.8153 49.6764 49.4292 49.6764C50.0431 49.6764 50.5403 50.1736 50.5403 50.7875C50.5403 51.4014 51.0389 51.8986 51.6514 51.8986C52.2639 51.8986 52.7626 51.4 52.7626 50.7875C52.7626 50.368 52.5987 49.9736 52.3028 49.6764L49.4292 46.8028C48.7126 46.0861 48.3181 45.1333 48.3181 44.1208C48.3181 42.2833 49.8139 40.7875 51.6514 40.7875C53.4889 40.7875 54.9848 42.2833 54.9848 44.1208C54.9848 44.7347 54.4876 45.2319 53.8737 45.2319C53.2598 45.2319 52.7626 44.7347 52.7626 44.1208C52.7626 43.5069 52.2639 43.0097 51.6514 43.0097C51.0389 43.0097 50.5403 43.5083 50.5403 44.1208C50.5403 44.5403 50.7042 44.9347 51.0001 45.2319L53.8737 48.1055C54.5903 48.8222 54.9848 49.775 54.9848 50.7875C54.9848 52.625 53.4889 54.1208 51.6514 54.1208Z" fill="#E42A3C"/>
<path d="M42.207 54.1208C40.0626 54.1208 38.3181 52.3764 38.3181 50.2319V44.6764C38.3181 42.5319 40.0626 40.7875 42.207 40.7875C44.3514 40.7875 46.0959 42.5319 46.0959 44.6764V50.2319C46.0959 52.3764 44.3514 54.1208 42.207 54.1208ZM42.207 43.0097C41.2876 43.0097 40.5403 43.7569 40.5403 44.6764V50.2319C40.5403 51.1514 41.2876 51.8986 42.207 51.8986C43.1264 51.8986 43.8737 51.1514 43.8737 50.2319V44.6764C43.8737 43.7569 43.1264 43.0097 42.207 43.0097Z" fill="#E42A3C"/>
</g>
<defs>
<clipPath id="clip0_249_1491">
<rect width="40" height="40" fill="white" transform="translate(22 28)"/>
</clipPath>
</defs>
</svg>
