<svg width="150" height="132" viewBox="0 0 150 132" fill="none" xmlns="http://www.w3.org/2000/svg">
<path d="M149.276 123.207L79.637 2.67842C78.5991 0.887227 76.8079 0 75 0C73.1921 0 71.3841 0.887227 70.363 2.67842L0.724067 123.207C-1.33497 126.79 1.24301 131.243 5.36108 131.243H144.639C148.757 131.243 151.335 126.79 149.276 123.207ZM69.6432 49.5508C69.6432 48.8142 70.2458 48.2116 70.9824 48.2116H79.0176C79.7542 48.2116 80.3568 48.8142 80.3568 49.5508V80.3526C80.3568 81.0892 79.7542 81.6918 79.0176 81.6918H70.9824C70.2458 81.6918 69.6432 81.0892 69.6432 80.3526V49.5508ZM75 108.476C72.8973 108.433 70.8952 107.568 69.4234 106.065C67.9515 104.563 67.1271 102.544 67.1271 100.441C67.1271 98.3376 67.9515 96.3183 69.4234 94.8161C70.8952 93.3138 72.8973 92.4484 75 92.4055C77.1027 92.4484 79.1048 93.3138 80.5766 94.8161C82.0485 96.3183 82.8729 98.3376 82.8729 100.441C82.8729 102.544 82.0485 104.563 80.5766 106.065C79.1048 107.568 77.1027 108.433 75 108.476Z" fill="#E13A3E"/>
</svg>
